<svg width="36" height="36" viewBox="0 0 36 36" fill="none" xmlns="http://www.w3.org/2000/svg">
<path d="M11.7 22.05H28.8L31.95 9.44995H8.55005" stroke="#C2CCDE" stroke-linecap="round" stroke-linejoin="round"/>
<path d="M13.0279 27.3613L7.65005 5.84998H4.05005" stroke="#C2CCDE" stroke-linecap="round" stroke-linejoin="round"/>
<path d="M11.8809 27.6745C12.6044 27.2568 13.4957 27.2568 14.2192 27.6745C14.9426 28.0922 15.3883 28.8641 15.3883 29.6995C15.3883 30.5349 14.9426 31.3068 14.2192 31.7245C13.4957 32.1422 12.6044 32.1422 11.8809 31.7245C11.1574 31.3068 10.7118 30.5349 10.7118 29.6995C10.7118 28.8641 11.1574 28.0922 11.8809 27.6745Z" stroke="#C2CCDE" stroke-linecap="round" stroke-linejoin="round"/>
<path d="M13.6885 27.45H27.2614" stroke="#C2CCDE" stroke-linecap="round" stroke-linejoin="round"/>
<path d="M26.7309 27.6745C27.4543 27.2568 28.3457 27.2568 29.0692 27.6745C29.7926 28.0922 30.2383 28.8641 30.2383 29.6995C30.2383 30.5349 29.7926 31.3068 29.0692 31.7245C28.3457 32.1422 27.4543 32.1422 26.7309 31.7245C26.0074 31.3068 25.5618 30.5349 25.5618 29.6995C25.5618 28.8641 26.0074 28.0922 26.7309 27.6745Z" stroke="#C2CCDE" stroke-linecap="round" stroke-linejoin="round"/>
</svg>
