<svg width="219" height="63" viewBox="0 0 219 63" fill="none" xmlns="http://www.w3.org/2000/svg">
<path d="M10.3371 14.9665C8.82023 15.753 7.52809 16.371 7.47191 16.371C7.35955 16.371 7.30337 15.8654 7.30337 15.2474C7.30337 14.2362 6.91011 14.1238 3.65169 14.1238H0V31.8205V49.5171H3.8764H7.80899L7.97753 37.5508C8.14607 26.2025 8.20225 25.5283 9.4382 23.8429C12.0787 20.1351 17.9775 20.1351 20.2247 23.8429C21.236 25.4721 21.3483 26.7643 21.3483 37.5508V49.5171H25.5618H29.7753V37.4384V25.3598L31.6854 23.225C33.427 21.371 33.9326 21.1463 36.4045 21.1463C39.7753 21.1463 41.7978 22.7193 42.6966 25.8654C42.9775 26.989 43.2584 32.7755 43.2584 38.6744V49.5171H47.2472H51.1798L51.0112 35.9216C50.8427 23.225 50.7865 22.1014 49.6067 20.0227C47.191 15.4721 43.7079 13.562 38.0899 13.562C34.3258 13.562 30.5056 14.9103 28.3146 16.989L27.0787 18.1126L25.618 16.6519C22.191 13.2249 15.2809 12.4384 10.3371 14.9665Z" fill="white"/>
<path d="M66.1236 14.4046C63.6517 15.3035 58.7079 18.8428 58.2584 19.9102C58.0899 20.3596 58.9888 21.8765 60.2247 23.3372L62.5281 25.9776L64.2697 24.2922C69.1573 19.517 77.191 19.9102 78.5393 24.9102C78.8202 25.9214 78.9326 26.9327 78.8202 27.1574C78.7079 27.4383 76.9663 27.6068 74.9438 27.6068C66.7416 27.6068 60 30.472 57.6966 34.9102C56.2921 37.663 56.573 43.0001 58.3708 45.472C60.5618 48.5619 63.5955 49.7979 69.1011 49.7979C73.2584 49.7979 74.2135 49.6293 76.6292 48.281C78.1461 47.3821 79.4382 46.708 79.5506 46.708C79.6629 46.708 79.7753 47.3259 79.7753 48.1125C79.7753 49.5731 79.8315 49.5731 83.5955 49.4046L87.3596 49.2361V36.8765C87.3596 26.3147 87.191 24.1237 86.3483 21.8765C85.1124 18.6743 81.236 14.9664 78.3146 14.1799C75.2809 13.3372 68.7079 13.5057 66.1236 14.4046ZM78.7641 35.7529C78.4832 38.5619 76.7416 41.3147 74.382 42.6068C68.8202 45.8091 62.5843 42.6068 64.6629 37.663C65.7303 34.9664 68.8764 33.7304 74.4382 33.9552L78.9326 34.0675L78.7641 35.7529Z" fill="white"/>
<path d="M121.798 14.9103C119.213 16.2586 119.101 16.3148 119.101 15.2474C119.101 14.2362 118.708 14.1238 115.169 14.1238H111.236V31.8204V49.5732L115.337 49.4047L119.382 49.2362L119.663 37.1575C119.944 23.9553 120.112 23.2811 123.371 21.7081C126.91 20.0227 130.674 21.1463 132.416 24.4047C133.258 25.9216 133.427 28.0002 133.596 37.8317L133.764 49.5171H137.697H141.629L141.461 36.1463C141.292 23.1126 141.236 22.7193 139.831 20.0227C138.989 18.3373 137.472 16.5395 136.011 15.5283C133.876 14.0676 133.034 13.8429 129.045 13.6744C125 13.5058 124.101 13.6744 121.798 14.9103Z" fill="white"/>
<path d="M192.416 15.1911C181.067 20.5282 178.483 35.8653 187.36 44.7979C191.067 48.5057 194.382 49.7979 200 49.7979C204.101 49.7979 205.225 49.5731 207.978 48.2248C219.438 42.6068 221.854 27.3259 212.64 18.3934C207.472 13.3934 199.045 12.045 192.416 15.1911ZM205.449 22.7192C207.809 24.2922 210.112 28.7866 210.112 31.7641C210.056 34.9664 208.371 38.3934 205.843 40.3035C204.045 41.708 203.258 41.9327 200.056 41.9327C197.079 41.9327 196.011 41.6518 194.494 40.6405C189.719 37.2136 188.876 28.6743 192.865 24.2922C196.067 20.8091 201.573 20.0787 205.449 22.7192Z" fill="white"/>
<path d="M145.73 15.1346C145.955 15.6964 148.989 23.2245 152.472 31.82L158.876 47.4942L157.584 50.0223C155.787 53.6739 154.382 54.6852 151.124 55.0223L148.315 55.3032V58.8425V62.438H151.966C153.989 62.438 156.461 62.1009 157.472 61.6515C159.719 60.6964 162.472 57.8312 163.989 54.8537C164.831 53.1683 179.382 19.4605 181.292 14.7975C181.517 14.2357 180.618 14.1234 177.191 14.2357L172.809 14.4043L168.258 25.7526C165.787 31.9886 163.596 37.2133 163.427 37.438C163.258 37.6065 161.067 32.4942 158.596 26.0897L154.101 14.4043L149.775 14.2357C145.73 14.0672 145.449 14.1234 145.73 15.1346Z" fill="white"/>
<path d="M98.0337 16.9326C95.2809 18 94.4382 21.5393 96.3483 23.6741C97.809 25.3033 101.348 25.191 102.472 23.5618C104.888 20.1348 101.685 15.4157 98.0337 16.9326Z" fill="white"/>
<path d="M96.9101 41.8202C93.8764 44.4045 95.3933 48.9551 99.2697 48.9551C104.27 48.9551 104.831 41.9326 99.9438 40.809C98.8764 40.5281 98.0337 40.809 96.9101 41.8202Z" fill="white"/>
</svg>
