<svg width="36" height="36" viewBox="0 0 36 36" fill="none" xmlns="http://www.w3.org/2000/svg">
<path d="M17.8776 10.7678L16.6048 9.49501C15.4233 8.31353 13.8209 7.64978 12.15 7.64978C10.4792 7.64978 8.87671 8.31353 7.69523 9.49501C6.51376 10.6765 5.85001 12.2789 5.85001 13.9498C5.85001 15.6206 6.51376 17.2231 7.69523 18.4046L14.0316 24.7409C14.0407 24.7501 14.0499 24.7594 14.0591 24.7686L17.2411 27.9506C17.4169 28.1263 17.6472 28.2142 17.8776 28.2142" stroke="#C0C0C0" stroke-linecap="round" stroke-linejoin="round"/>
<path d="M17.8776 10.7677L19.1503 9.49501C20.3318 8.31353 21.9343 7.64978 23.6051 7.64978C25.276 7.64978 26.8784 8.31353 28.0599 9.49501C29.2414 10.6765 29.9051 12.2789 29.9051 13.9498C29.9051 15.6206 29.2414 17.2231 28.0599 18.4046L18.5139 27.9505C18.3382 28.1262 18.1079 28.2141 17.8776 28.2141" stroke="#C0C0C0" stroke-linecap="round" stroke-linejoin="round"/>
</svg>
