<svg width="219" height="63" viewBox="0 0 219 63" fill="none" xmlns="http://www.w3.org/2000/svg">
<path d="M10.3371 14.9663C8.82023 15.7528 7.52809 16.3708 7.47191 16.3708C7.35955 16.3708 7.30337 15.8652 7.30337 15.2472C7.30337 14.2359 6.91011 14.1236 3.65169 14.1236H0V31.8202V49.5168H3.8764H7.80899L7.97753 37.5506C8.14607 26.2022 8.20225 25.5281 9.4382 23.8427C12.0787 20.1348 17.9775 20.1348 20.2247 23.8427C21.236 25.4719 21.3483 26.764 21.3483 37.5506V49.5168H25.5618H29.7753V37.4382V25.3595L31.6854 23.2247C33.427 21.3708 33.9326 21.1461 36.4045 21.1461C39.7753 21.1461 41.7978 22.7191 42.6966 25.8652C42.9775 26.9888 43.2584 32.7753 43.2584 38.6741V49.5168H47.2472H51.1798L51.0112 35.9213C50.8427 23.2247 50.7865 22.1011 49.6067 20.0225C47.191 15.4719 43.7079 13.5618 38.0899 13.5618C34.3258 13.5618 30.5056 14.9101 28.3146 16.9888L27.0787 18.1123L25.618 16.6517C22.191 13.2247 15.2809 12.4382 10.3371 14.9663Z" fill="#B80120"/>
<path d="M66.1236 14.4045C63.6517 15.3033 58.7078 18.8427 58.2584 19.9101C58.0899 20.3595 58.9887 21.8764 60.2247 23.3371L62.5281 25.9775L64.2696 24.2921C69.1573 19.5168 77.191 19.9101 78.5393 24.9101C78.8202 25.9213 78.9326 26.9326 78.8202 27.1573C78.7078 27.4382 76.9663 27.6067 74.9438 27.6067C66.7416 27.6067 60 30.4719 57.6966 34.9101C56.2921 37.6629 56.573 43 58.3708 45.4719C60.5618 48.5618 63.5955 49.7977 69.1011 49.7977C73.2584 49.7977 74.2135 49.6292 76.6292 48.2809C78.1461 47.382 79.4382 46.7078 79.5505 46.7078C79.6629 46.7078 79.7753 47.3258 79.7753 48.1123C79.7753 49.573 79.8314 49.573 83.5955 49.4045L87.3595 49.2359V36.8764C87.3595 26.3146 87.191 24.1236 86.3483 21.8764C85.1123 18.6741 81.2359 14.9663 78.3146 14.1797C75.2809 13.3371 68.7078 13.5056 66.1236 14.4045ZM78.764 35.7528C78.4831 38.5618 76.7416 41.3146 74.382 42.6067C68.8202 45.809 62.5843 42.6067 64.6629 37.6629C65.7303 34.9663 68.8764 33.7303 74.4382 33.955L78.9326 34.0674L78.764 35.7528Z" fill="#B80120"/>
<path d="M121.798 14.9101C119.213 16.2584 119.101 16.3146 119.101 15.2472C119.101 14.2359 118.708 14.1236 115.169 14.1236H111.236V31.8202V49.573L115.337 49.4045L119.382 49.2359L119.663 37.1573C119.944 23.955 120.112 23.2809 123.371 21.7078C126.91 20.0224 130.674 21.146 132.416 24.4045C133.258 25.9213 133.427 28 133.596 37.8314L133.764 49.5168H137.697H141.629L141.461 36.146C141.292 23.1123 141.236 22.7191 139.831 20.0224C138.989 18.337 137.472 16.5393 136.011 15.528C133.876 14.0674 133.034 13.8427 129.045 13.6741C125 13.5056 124.101 13.6741 121.798 14.9101Z" fill="#B80120"/>
<path d="M192.416 15.191C181.067 20.5281 178.483 35.8651 187.36 44.7977C191.067 48.5056 194.382 49.7977 200 49.7977C204.101 49.7977 205.225 49.573 207.978 48.2247C219.438 42.6067 221.854 27.3258 212.64 18.3932C207.472 13.3932 199.045 12.0449 192.416 15.191ZM205.449 22.7191C207.809 24.2921 210.112 28.7865 210.112 31.764C210.056 34.9663 208.371 38.3932 205.843 40.3033C204.045 41.7078 203.258 41.9326 200.056 41.9326C197.079 41.9326 196.011 41.6517 194.494 40.6404C189.719 37.2135 188.876 28.6741 192.865 24.2921C196.067 20.809 201.573 20.0786 205.449 22.7191Z" fill="#B80120"/>
<path d="M145.73 15.1349C145.955 15.6967 148.989 23.2248 152.472 31.8203L158.876 47.4944L157.584 50.0225C155.787 53.6742 154.382 54.6854 151.124 55.0225L148.315 55.3034V58.8427V62.4382H151.966C153.989 62.4382 156.461 62.1012 157.472 61.6517C159.719 60.6967 162.472 57.8315 163.989 54.854C164.831 53.1686 179.382 19.4607 181.292 14.7978C181.517 14.236 180.618 14.1236 177.191 14.236L172.809 14.4045L168.258 25.7528C165.787 31.9888 163.596 37.2135 163.427 37.4382C163.258 37.6068 161.067 32.4944 158.596 26.0899L154.101 14.4045L149.775 14.236C145.73 14.0674 145.449 14.1236 145.73 15.1349Z" fill="#B80120"/>
<path d="M98.0337 16.9326C95.2809 18 94.4382 21.5393 96.3484 23.6741C97.809 25.3033 101.348 25.191 102.472 23.5618C104.888 20.1348 101.685 15.4157 98.0337 16.9326Z" fill="#B80120"/>
<path d="M96.9101 41.8202C93.8764 44.4045 95.3933 48.9551 99.2697 48.9551C104.27 48.9551 104.831 41.9326 99.9438 40.809C98.8764 40.5281 98.0337 40.809 96.9101 41.8202Z" fill="#B80120"/>
</svg>
