<svg width="36" height="36" viewBox="0 0 36 36" fill="none" xmlns="http://www.w3.org/2000/svg">
<path d="M27 31.5001H8.99995C8.00586 31.5001 7.19995 30.6942 7.19995 29.7001V29.0987C7.19995 26.4831 8.8227 24.1419 11.272 23.2239C15.61 21.5981 20.3899 21.5981 24.7279 23.2239C27.1772 24.1419 28.8 26.4831 28.8 29.0987V29.7001C28.8 30.6942 27.994 31.5001 27 31.5001Z" stroke="#C2CCDE" stroke-linecap="round" stroke-linejoin="round"/>
<path d="M15.2554 17.4903C16.978 18.3751 19.0215 18.3751 20.7441 17.4903C22.3473 16.6668 23.4959 15.1669 23.873 13.4045L23.9736 12.9341C24.3593 11.1319 23.9473 9.25091 22.8438 7.77477L22.6822 7.55864C21.5784 6.08232 19.8431 5.21301 17.9998 5.21301C16.1565 5.21301 14.4211 6.08232 13.3174 7.55864L13.1558 7.77477C12.0522 9.25091 11.6403 11.1319 12.0259 12.9341L12.1266 13.4045C12.5037 15.1669 13.6523 16.6668 15.2554 17.4903Z" stroke="#C2CCDE" stroke-linecap="round" stroke-linejoin="round"/>
</svg>
